PathFileType	4	(X/Y/Z)	C:/Users/opensim2020/Desktop/walking_exp_matlab/subject06_walking20_straight_01.trc																																																																																																																															
DataRate	CameraRate	NumFrames	NumMarkers	Units	OrigDataRate	OrigDataStartFrame	OrigNumFrames																																																																																																																											
100	100	5	43	mm	100	796	127																																																																																																																											
Frame#	Time	LFHD			RFHD			LBHD			RBHD			C7			T10			CLAV			STRN			RBAK			LSHO			LUPA			LELB			LFRM			LWRA			LWRB			LFIN			RSHO			RUPA			RELB			RFRM			RWRA			RWRB			RFIN			LASI			RASI			LPSI			RPSI			LTHI			LKNE			LTIB			LANK			LHEE			LTOE			RTHI			RKNE			RTIB			RANK			RHEE			RTOE			*39			*40			*41			*42		
		X1	Y1	Z1	X2	Y2	Z2	X3	Y3	Z3	X4	Y4	Z4	X5	Y5	Z5	X6	Y6	Z6	X7	Y7	Z7	X8	Y8	Z8	X9	Y9	Z9	X10	Y10	Z10	X11	Y11	Z11	X12	Y12	Z12	X13	Y13	Z13	X14	Y14	Z14	X15	Y15	Z15	X16	Y16	Z16	X17	Y17	Z17	X18	Y18	Z18	X19	Y19	Z19	X20	Y20	Z20	X21	Y21	Z21	X22	Y22	Z22	X23	Y23	Z23	X24	Y24	Z24	X25	Y25	Z25	X26	Y26	Z26	X27	Y27	Z27	X28	Y28	Z28	X29	Y29	Z29	X30	Y30	Z30	X31	Y31	Z31	X32	Y32	Z32	X33	Y33	Z33	X34	Y34	Z34	X35	Y35	Z35	X36	Y36	Z36	X37	Y37	Z37	X38	Y38	Z38	X39	Y39	Z39	X40	Y40	Z40	X41	Y41	Z41	X42	Y42	Z42	X43	Y43	Z43
																																																																																																																																		
64	0.63	-73.98082	1663.96667	-1087.77783	-82.60685	1649.33569	-956.94775	-205.21185	1608.23047	-1099.25818	-212.67902	1598.32581	-970.66583	-207.95499	1451.29382	-1045.80981	-252.16229	1125.40686	-1028.1593	-100.64553	1370.66907	-1036.13269	-66.25972	1194.84729	-1037.05701	-291.60046	1286.80115	-967.64142	-143.53175	1402.10095	-1201.36218	-157.74348	1201.53687	-1275.38965	-173.53064	1090.14771	-1290.72546	-151.56323	941.58594	-1315.0658	-97.04595	824.30292	-1270.79883	-152.90492	822.92743	-1315.4679	-114.76566	740.42908	-1314.20007	-156.30783	1408.2019	-879.27026	-224.58902	1222.03015	-787.82391	-230.84297	1099.52795	-771.62213	-222.20239	979.53674	-753.15295	-168.06268	838.35724	-784.76794	-222.097	842.09869	-744.21802	-187.89157	765.41296	-741.51221	-74.92275	962.72156	-1129.14636	-84.35387	966.40118	-909.51733	-232.36638	992.84222	-1104.88806	-232.37399	990.39746	-937.63348	-127.64315	647.68268	-1184.30286	-114.77831	485.95203	-1154.93921	-178.14632	234.80275	-1147.96045	-206.33281	65.74324	-1100.69653	-253.11292	54.93907	-1058.57886	-64.2	34.14778	-1087.13879	-71.55471	635.55457	-855.31641	-28.75392	517.23004	-877.55078	-173.84178	303.75821	-882.60529	-284.29059	154.10269	-924.64795	-329.14603	148.26518	-971.87518	-169.52266	52.85886	-914.39789	-178.20901	1699.27954	-1034.85828	-53.46744	1564.58313	-1032.91833	NaN	NaN	NaN	NaN	NaN	NaN
65	0.64	-60.18898	1664.16223	-1087.13086	-69.26191	1649.13269	-956.49365	-191.47462	1608.54382	-1099.28259	-199.35826	1598.28442	-970.71112	-194.43199	1451.32617	-1046.13062	-238.58649	1125.34668	-1028.51318	-87.27541	1370.73218	-1036.2948	-52.82183	1194.92114	-1037.62476	-278.1983	1286.74048	-968.51886	-130.09041	1402.13171	-1201.57837	-140.7336	1201.34949	-1276.05981	-153.88913	1089.65149	-1292.07813	-126.61196	941.85858	-1315.94104	-68.22221	826.68793	-1270.69421	-123.2167	823.27277	-1315.89966	-81.43497	742.61725	-1314.30444	-143.21725	1408.03833	-879.43793	-213.37573	1222.17993	-788.80475	-220.84181	1099.65979	-772.85651	-214.9113	979.46771	-754.21118	-164.20419	836.79547	-785.13983	-218.41724	841.99408	-744.97284	-186.20442	764.38507	-741.98553	-62.13642	962.21942	-1130.44104	-70.08176	966.82867	-910.73425	-219.57584	992.99084	-1104.66138	-218.31644	990.85321	-937.29736	-119.10257	647.39392	-1184.2981	-109.37931	485.24683	-1155.64905	-175.49164	234.70837	-1148.22388	-205.94559	65.98387	-1100.71045	-252.95358	55.69465	-1058.47961	-64.1263	34.09264	-1087.43225	-52.91325	637.77325	-855.18628	-8.58872	520.38422	-878.14838	-144.4041	299.91388	-883.16534	-246.14049	144.34435	-925.42999	-290.51187	135.54678	-973.05994	-125.37299	51.06057	-913.90393	-164.64488	1699.41235	-1034.50854	NaN	NaN	NaN	NaN	NaN	NaN	NaN	NaN	NaN
66	0.65	-46.46986	1663.86938	-1086.58057	-55.9977	1648.68945	-955.98895	-177.76678	1608.55054	-1099.24438	-186.05731	1598.01685	-970.68781	-181.07491	1451.11536	-1046.38428	-225.05009	1125.12012	-1028.73865	-73.90231	1370.5199	-1036.39941	-39.40489	1194.75122	-1038.06653	-264.86526	1286.40161	-969.29205	-116.70836	1401.95911	-1201.87305	-123.96635	1201.03027	-1276.67627	-134.58334	1089.10681	-1293.32825	-101.74123	942.31915	-1316.755	-38.95121	829.81158	-1270.75916	-93.49783	823.82373	-1316.00769	-48.06052	745.39514	-1314.24915	-130.16875	1407.60095	-879.52374	-201.81569	1222.0448	-789.7193	-210.6011	1099.58972	-774.03101	-207.35051	979.26447	-755.23138	-159.96648	835.23822	-785.40851	-214.37883	841.75623	-745.66321	-184.1539	763.41925	-742.49689	-49.48405	961.56555	-1131.55176	-56.03734	966.89612	-911.74567	-206.65625	992.90863	-1104.36682	-204.27899	991.03772	-936.92712	-110.66856	646.93024	-1184.49731	-103.7944	484.35849	-1156.01611	-172.74686	234.58739	-1148.46912	-205.48241	66.29692	-1100.67761	-251.51888	55.8437	-1058.87488	-64.077	33.96296	-1087.69238	-34.64302	639.71741	-855.02576	11.23933	523.01117	-878.52734	-114.88277	295.87662	-883.77496	-207.30069	134.60884	-926.16669	-250.76752	122.88834	-973.97864	-81.17502	49.39581	-913.73108	-151.08578	1699.17444	-1034.26257	-20.60567	1564.83728	-1029.47412	NaN	NaN	NaN	NaN	NaN	NaN
67	0.66	-32.87948	1663.16028	-1086.22827	-42.57357	1648.08606	-955.60529	-164.04523	1608.22742	-1099.20459	-172.72162	1597.47461	-970.65723	-167.65889	1450.60071	-1046.58484	-211.53703	1124.60571	-1028.79944	-60.5388	1370.02539	-1036.48828	-26.08057	1194.28027	-1038.52014	-251.63275	1285.76733	-969.96735	-103.46397	1401.42908	-1201.89612	-107.43768	1200.67883	-1277.29944	-115.42475	1088.49963	-1294.48254	-76.97208	942.92682	-1317.47046	-9.81863	833.42822	-1270.73267	-64.02119	824.86346	-1316.16467	-14.99129	748.75714	-1314.1261	-117.05592	1406.96924	-879.62549	-190.15614	1221.74597	-790.28174	-200.27216	1099.32849	-775.08209	-199.60767	978.92456	-756.18121	-155.57112	833.66492	-785.66956	-209.70898	841.77277	-746.3692	-181.98126	762.37451	-742.88599	-36.98833	960.59613	-1132.44275	-41.75626	966.72424	-912.79614	-193.90955	992.60828	-1103.99402	-190.24394	990.92932	-936.54901	-101.11311	646.25281	-1184.18225	-97.56456	483.33102	-1156.16711	-170.11755	234.50919	-1148.58276	-204.98772	66.67218	-1100.58313	-251.13153	56.52972	-1058.69666	-63.88881	33.76088	-1087.77771	-16.81445	641.38489	-854.75	30.46861	525.32446	-879.12744	-85.13	291.85388	-884.16528	-167.89017	125.07511	-926.77277	-210.40277	110.96255	-974.78156	-36.88607	48.05151	-913.66797	-137.49713	1698.75952	-1034.03674	NaN	NaN	NaN	NaN	NaN	NaN	NaN	NaN	NaN
68	0.67	-19.18203	1662.48901	-1085.87866	-29.48236	1647.08887	-955.16455	-150.42128	1607.68604	-1099.19043	-159.35759	1596.69629	-970.70111	-154.23018	1449.94653	-1046.67627	-197.96681	1123.86438	-1028.72876	-47.17982	1369.32251	-1036.58997	-12.68406	1193.63757	-1038.94275	-238.21741	1284.74719	-970.54242	-90.17493	1400.66748	-1201.86499	-91.2436	1200.19617	-1277.81445	-95.97512	1087.87549	-1295.30957	-52.50113	943.81128	-1318.07202	19.10041	837.56549	-1270.81519	-34.68498	826.33337	-1316.09656	17.80885	752.72235	-1313.88525	-103.88649	1406.10596	-879.65759	-178.81183	1221.28186	-791.13147	-189.70697	1098.86499	-776.02319	-191.55841	978.50482	-757.02179	-150.93791	832.12012	-786.04102	-204.99245	841.3302	-747.12848	-179.36275	761.4231	-743.30853	-24.50919	959.41101	-1133.17261	-27.73409	966.14026	-913.54053	-181.09831	992.04266	-1103.57483	-176.14769	990.46558	-936.13239	-92.81612	645.55609	-1184.64392	-91.32318	482.25726	-1156.28735	-167.49847	234.48355	-1148.62878	-204.44455	67.12333	-1100.34436	-250.91411	57.47706	-1058.1947	-63.69669	33.70613	-1087.94153	0.73029	642.67377	-854.18225	49.23331	527.3515	-879.53534	-55.28983	287.64371	-884.43469	-127.82652	116.12624	-927.11816	-169.4969	99.61504	-975.17102	7.50909	47.3303	-913.85016	-123.95007	1698.06177	-1033.75427	NaN	NaN	NaN	NaN	NaN	NaN	NaN	NaN	NaN
